<svg width="16" height="32" viewBox="0 0 16 32" fill="none" xmlns="http://www.w3.org/2000/svg">
<path d="M13 9.25C14.5188 9.25 15.75 10.4812 15.75 12V20C15.75 21.5188 14.5188 22.75 13 22.75H3C1.48122 22.75 0.25 21.5188 0.25 20V12C0.25 10.4812 1.48122 9.25 3 9.25H13ZM3 10.75C2.30964 10.75 1.75 11.3096 1.75 12V20C1.75 20.6904 2.30964 21.25 3 21.25H13C13.6904 21.25 14.25 20.6904 14.25 20V12C14.25 11.3096 13.6904 10.75 13 10.75H3ZM12 18.25C12.4142 18.25 12.75 18.5858 12.75 19C12.75 19.4142 12.4142 19.75 12 19.75H4C3.58579 19.75 3.25 19.4142 3.25 19C3.25 18.5858 3.58579 18.25 4 18.25H12ZM8 15.25C8.41421 15.25 8.75 15.5858 8.75 16C8.75 16.4142 8.41421 16.75 8 16.75H4C3.58579 16.75 3.25 16.4142 3.25 16C3.25 15.5858 3.58579 15.25 4 15.25H8ZM12 15.25C12.4142 15.25 12.75 15.5858 12.75 16C12.75 16.4142 12.4142 16.75 12 16.75H11C10.5858 16.75 10.25 16.4142 10.25 16C10.25 15.5858 10.5858 15.25 11 15.25H12ZM5 12.25C5.41421 12.25 5.75 12.5858 5.75 13C5.75 13.4142 5.41421 13.75 5 13.75H4C3.58579 13.75 3.25 13.4142 3.25 13C3.25 12.5858 3.58579 12.25 4 12.25H5ZM12 12.25C12.4142 12.25 12.75 12.5858 12.75 13C12.75 13.4142 12.4142 13.75 12 13.75H8C7.58579 13.75 7.25 13.4142 7.25 13C7.25 12.5858 7.58579 12.25 8 12.25H12Z" fill="white"/>
</svg>
